<svg xmlns="http://www.w3.org/2000/svg" fill="#989898" fill-rule="evenodd" viewBox="0 0 14 16"><path d="M13.11 12.415a8.695 8.695 0 0 1-.85 1.527c-.447.638-.813 1.078-1.095 1.323-.437.402-.905.608-1.407.62-.36 0-.794-.103-1.3-.31-.506-.207-.972-.31-1.398-.31-.447 0-.927.103-1.44.31-.512.207-.926.316-1.242.326-.48.022-.96-.19-1.44-.635-.304-.266-.686-.723-1.144-1.37a9.464 9.464 0 0 1-1.21-2.404c-.34-.986-.51-1.94-.51-2.865 0-1.06.23-1.973.688-2.74.36-.614.84-1.1 1.44-1.455a3.888 3.888 0 0 1 1.946-.55c.382 0 .883.12 1.505.35.62.234 1.02.352 1.194.352.13 0 .574-.138 1.324-.413.71-.257 1.31-.362 1.8-.32 1.33.107 2.33.63 2.994 1.575-1.19.72-1.778 1.73-1.766 3.025.01 1.008.377 1.848 1.096 2.514a3.6 3.6 0 0 0 1.094.718c-.088.255-.18.498-.28.733zm-3.05-12c0 .79-.29 1.527-.865 2.21C8.5 3.437 7.66 3.907 6.75 3.833a2.385 2.385 0 0 1-.02-.3c0-.76.33-1.57.918-2.235a3.55 3.55 0 0 1 1.117-.84c.45-.218.877-.34 1.278-.36.012.105.017.21.017.316z"></path></svg>
